<svg width="168" height="62" viewBox="0 0 168 62" fill="none" xmlns="http://www.w3.org/2000/svg">
<path d="M36.1053 24.3741C36.1053 23.8733 36.2166 23.4629 36.4462 23.143C36.6687 22.823 36.9469 22.5865 37.2738 22.4266C37.6008 22.2527 37.9485 22.1692 38.3241 22.1692C38.338 22.1692 38.3519 22.1762 38.3728 22.1901C38.7623 22.1901 39.124 22.2735 39.4578 22.4335C39.7917 22.6005 40.0769 22.8369 40.2994 23.1569C40.522 23.4768 40.6402 23.8802 40.6402 24.3602C40.6402 24.8401 40.529 25.2435 40.2994 25.5634C40.0699 25.8834 39.7917 26.1268 39.4578 26.2868C39.124 26.4537 38.7623 26.5302 38.3728 26.5302C38.3589 26.5441 38.338 26.5511 38.3241 26.5511C37.9485 26.5511 37.6008 26.4676 37.2738 26.2938C36.9469 26.1407 36.6687 25.8973 36.4462 25.5774C36.2166 25.2783 36.1053 24.8749 36.1053 24.3741ZM40.362 39.3142H36.3418V27.2049H40.362V39.3142Z" fill="#212366"/>
<path d="M51.6784 35.8087V39.3142H43.0468L42.1565 38.097L46.4132 30.7104H42.553V27.2049H51.0663L51.8384 28.3039L47.5608 35.8087H51.6784Z" fill="#212366"/>
<path d="M57.7296 31.7607C57.9174 31.7607 58.1469 31.7676 58.4182 31.7816C58.6894 31.7955 58.9259 31.8233 59.1346 31.8511C59.1346 31.8024 59.1346 31.7468 59.1346 31.6842C59.1346 31.4199 59.0998 31.1834 59.0442 30.9817C58.9537 30.7661 58.8285 30.5922 58.6686 30.467C58.5156 30.3418 58.3347 30.2514 58.133 30.1957C57.9313 30.1401 57.7226 30.1123 57.5001 30.1123C57.0827 30.1123 56.7002 30.1888 56.3663 30.3487C56.0325 30.5018 55.7056 30.7174 55.3926 30.9817L53.5703 29.1316C54.1337 28.3665 54.8153 27.817 55.6291 27.4692C56.4429 27.1284 57.2845 26.9545 58.1539 26.9545C58.7799 26.9545 59.378 27.038 59.9553 27.2119C60.5326 27.3858 61.0404 27.6501 61.4855 28.0048C61.9306 28.3665 62.2854 28.8116 62.5497 29.3472C62.814 29.8827 62.9461 30.5296 62.9461 31.2738V38.7091C62.1671 38.9873 61.3742 39.196 60.5604 39.3281C59.7467 39.4603 58.9885 39.5298 58.2721 39.5298C56.5402 39.5298 55.2604 39.1751 54.4258 38.4657C53.5912 37.7562 53.1738 36.7686 53.1738 35.5096C53.1738 34.9949 53.2642 34.5081 53.452 34.049C53.6398 33.59 53.925 33.1865 54.3076 32.8457C54.6901 32.5049 55.1631 32.2337 55.7334 32.0389C56.3037 31.8581 56.9715 31.7607 57.7296 31.7607ZM58.3904 34.3133C58.3556 34.3133 58.3278 34.3133 58.2999 34.3133C58.0495 34.3272 57.82 34.3829 57.5974 34.4802C57.3818 34.5707 57.201 34.7098 57.0688 34.8767C56.9367 35.0506 56.8671 35.2592 56.8671 35.5096C56.8671 35.8226 56.9436 36.0591 57.0897 36.226C57.2358 36.393 57.4236 36.5043 57.6392 36.5668C57.8131 36.6155 58.0009 36.6364 58.2026 36.6364C58.2513 36.6364 58.293 36.6364 58.3417 36.6364C58.606 36.6225 58.8564 36.5808 59.0928 36.5182V34.4385C58.8564 34.3481 58.6199 34.3133 58.3904 34.3133Z" fill="#212366"/>
<path d="M70.2631 26.9684C70.903 26.9684 71.5151 27.031 72.1133 27.1562C72.7045 27.2814 73.2331 27.497 73.6921 27.81C74.1512 28.123 74.5198 28.5473 74.7911 29.0828C75.0624 29.6184 75.2015 30.3 75.2015 31.1277V35.1271C75.2015 35.8296 75.0763 36.4555 74.8259 36.9981C74.5755 37.5406 74.2416 38.0066 73.8173 38.3752C73.3931 38.7508 72.9201 39.036 72.3776 39.2377C71.842 39.4394 71.2856 39.5437 70.7083 39.5437C70.4579 39.5437 70.2075 39.5229 69.9571 39.4881C69.7067 39.4463 69.4633 39.3907 69.2338 39.3142V43.6613H65.2553V27.9978C65.9856 27.7196 66.7924 27.4762 67.6618 27.2744C68.5452 27.0727 69.4076 26.9684 70.2631 26.9684ZM69.9641 36.2747C70.0267 36.2747 70.0893 36.2747 70.1519 36.2747C70.4162 36.2608 70.6735 36.1704 70.9239 36.0034C71.1743 35.8365 71.2995 35.5583 71.2995 35.1479V31.0095C71.2995 30.6826 71.1743 30.4391 70.9239 30.2861C70.6735 30.1331 70.3953 30.0496 70.0823 30.0496C69.818 30.0496 69.5398 30.1053 69.2407 30.2166V36.1078C69.4563 36.2191 69.6998 36.2747 69.9641 36.2747Z" fill="#212366"/>
<path d="M81.7465 38.2848C82.0734 38.2848 82.4003 38.25 82.7272 38.1805C83.0541 38.1109 83.3462 37.9927 83.6035 37.8188C83.8609 37.6449 84.0626 37.4223 84.2087 37.1372C84.3547 36.8589 84.4312 36.5042 84.4312 36.0869C84.4312 35.6835 84.3478 35.3496 84.1739 35.0784C84 34.8141 83.7774 34.5985 83.5062 34.4246C83.2349 34.2507 82.9358 34.1255 82.6089 34.042C82.282 33.9586 81.9621 33.8821 81.6491 33.8195C81.1483 33.729 80.6545 33.6108 80.1537 33.4786C79.6529 33.3465 79.2078 33.1517 78.8113 32.9083C78.4148 32.6649 78.0879 32.338 77.8306 31.9345C77.5732 31.5381 77.448 31.0234 77.448 30.4044C77.448 29.7992 77.5802 29.2776 77.8445 28.8394C78.1088 28.4012 78.4496 28.0465 78.8739 27.7613C79.2912 27.4831 79.7572 27.2814 80.265 27.1562C80.7727 27.031 81.2665 26.9684 81.7534 26.9684C82.3794 26.9684 82.9915 27.0727 83.5896 27.2744C84.1878 27.4762 84.7095 27.7822 85.1476 28.1856L84.306 29.1663C83.9652 28.8046 83.5757 28.5612 83.1375 28.429C82.6994 28.2969 82.2403 28.2273 81.7604 28.2273C81.4474 28.2273 81.1205 28.2621 80.7658 28.3317C80.418 28.4012 80.0911 28.5195 79.7851 28.6794C79.479 28.8464 79.2286 29.0689 79.0339 29.3471C78.8391 29.6254 78.7417 29.9801 78.7417 30.3974C78.7417 30.8008 78.853 31.1347 79.0687 31.392C79.2843 31.6494 79.5555 31.858 79.8755 32.0111C80.1954 32.1641 80.5362 32.2823 80.891 32.3588C81.2526 32.4353 81.5865 32.5049 81.8995 32.5675C82.3655 32.6579 82.8315 32.7831 83.2906 32.9431C83.7496 33.0961 84.16 33.3117 84.5286 33.576C84.8972 33.8403 85.1894 34.1742 85.4189 34.5845C85.6415 34.988 85.7597 35.4887 85.7597 36.0799C85.7597 36.6851 85.6484 37.2067 85.4189 37.638C85.1894 38.0692 84.8903 38.4239 84.5217 38.7021C84.1461 38.9803 83.7218 39.189 83.2488 39.3211C82.7759 39.4533 82.2751 39.5298 81.7673 39.5437C81.7047 39.5437 81.6421 39.5437 81.5795 39.5437C80.6893 39.5437 79.8616 39.342 79.1034 38.9386C78.2897 38.5213 77.6219 37.8883 77.0933 37.0467L78.1019 36.4138C78.554 37.0398 79.1034 37.5058 79.7503 37.8188C80.3693 38.1318 81.044 38.2848 81.7465 38.2848Z" fill="#212366"/>
<path d="M88.0132 30.9191C88.0132 30.2653 88.1454 29.688 88.4097 29.2011C88.674 28.7073 89.0218 28.3038 89.453 27.97C89.8842 27.6431 90.3711 27.3927 90.9275 27.2188C91.484 27.0449 92.0474 26.9615 92.6247 26.9615C93.2019 26.9615 93.7653 27.0449 94.3079 27.2188C94.8504 27.3927 95.3373 27.6361 95.7685 27.97C96.1997 28.2969 96.5405 28.7073 96.8118 29.2011C97.0761 29.6949 97.2082 30.2653 97.2082 30.9191V35.5931C97.2082 36.2469 97.0761 36.8242 96.8118 37.325C96.5475 37.8257 96.1997 38.2361 95.7685 38.563C95.3373 38.8899 94.8504 39.1334 94.3079 39.3003C93.7653 39.4672 93.2019 39.5437 92.6247 39.5437C92.0474 39.5437 91.484 39.4603 90.9275 39.3003C90.3711 39.1334 89.8842 38.8899 89.453 38.563C89.0218 38.2361 88.674 37.8257 88.4097 37.325C88.1454 36.8242 88.0132 36.2469 88.0132 35.5931V30.9191ZM92.6247 28.2343C92.2212 28.2343 91.8248 28.283 91.4353 28.3873C91.0458 28.4916 90.698 28.6447 90.385 28.8533C90.072 29.062 89.8216 29.3332 89.6269 29.6601C89.4321 29.987 89.3348 30.3835 89.3348 30.8495V35.6418C89.3348 36.1078 89.4321 36.5042 89.6269 36.8311C89.8216 37.158 90.072 37.4293 90.385 37.6519C90.698 37.8675 91.0458 38.0275 91.4353 38.1318C91.8248 38.2361 92.2212 38.2848 92.6247 38.2848C93.0142 38.2848 93.4037 38.2361 93.7932 38.1318C94.1827 38.0275 94.5304 37.8675 94.8434 37.6519C95.1564 37.4362 95.4068 37.158 95.6016 36.8311C95.7963 36.5042 95.8937 36.1078 95.8937 35.6418V30.8495C95.8937 30.3835 95.7963 29.987 95.6016 29.6601C95.4068 29.3332 95.1564 29.062 94.8434 28.8533C94.5304 28.6447 94.1827 28.4847 93.7932 28.3873C93.4037 28.283 93.0142 28.2343 92.6247 28.2343Z" fill="#212366"/>
<path d="M103.802 23.8594C103.099 23.8594 102.571 24.0402 102.209 24.3949C101.771 24.8331 101.555 25.5634 101.555 26.5928V27.7613H104.178V28.9298H101.555V39.3142H100.248V26.5928C100.248 25.8764 100.352 25.2574 100.554 24.7357C100.756 24.2141 101.034 23.7898 101.395 23.4629C101.757 23.136 102.181 22.8995 102.682 22.7604C103.023 22.6839 103.392 22.6422 103.781 22.6422C103.969 22.6422 104.157 22.6491 104.344 22.663V23.8802C104.15 23.8663 103.969 23.8594 103.802 23.8594Z" fill="#212366"/>
<path d="M109.742 39.5924C109.38 39.5924 109.067 39.5437 108.782 39.4533C108.239 39.3142 107.787 39.0708 107.44 38.73C107.092 38.3892 106.821 37.951 106.647 37.4224C106.466 36.8937 106.375 36.3025 106.375 35.6418V24.4436H107.523L107.69 27.2049H110.312V28.3734H107.69V35.6487C107.69 36.0661 107.739 36.4625 107.829 36.8311C107.92 37.1998 108.086 37.5128 108.323 37.7632C108.559 38.0136 108.865 38.2014 109.255 38.3126C109.457 38.3752 109.693 38.4031 109.957 38.4031C110.173 38.4031 110.416 38.3822 110.681 38.3335V39.502C110.347 39.5646 110.034 39.5924 109.742 39.5924Z" fill="#212366"/>
<path d="M115.306 39.3142L111.661 27.198H113.039L116.245 37.9579L118.867 27.198H120.53L123.152 37.9579L126.358 27.198H127.735L124.091 39.3142H122.22L119.716 28.9577L117.191 39.3142H115.306Z" fill="#212366"/>
<path d="M129.426 30.9191C129.426 30.2653 129.558 29.688 129.822 29.2011C130.086 28.7073 130.434 28.3038 130.865 27.97C131.297 27.6431 131.783 27.3927 132.34 27.2188C132.896 27.0449 133.46 26.9615 134.037 26.9615C134.614 26.9615 135.178 27.0449 135.72 27.2188C136.263 27.3927 136.75 27.6361 137.181 27.97C137.612 28.2969 137.953 28.7073 138.224 29.2011C138.488 29.6949 138.621 30.2653 138.621 30.9191V35.5931C138.621 36.2469 138.488 36.8242 138.224 37.325C137.96 37.8257 137.612 38.2361 137.181 38.563C136.75 38.8899 136.263 39.1334 135.72 39.3003C135.178 39.4672 134.614 39.5437 134.037 39.5437C133.46 39.5437 132.896 39.4603 132.34 39.3003C131.783 39.1334 131.297 38.8899 130.865 38.563C130.434 38.2361 130.086 37.8257 129.822 37.325C129.558 36.8242 129.426 36.2469 129.426 35.5931V30.9191ZM134.037 28.2343C133.634 28.2343 133.237 28.283 132.848 28.3873C132.458 28.4916 132.11 28.6447 131.797 28.8533C131.484 29.062 131.234 29.3332 131.039 29.6601C130.844 29.987 130.747 30.3835 130.747 30.8495V35.6418C130.747 36.1078 130.844 36.5042 131.039 36.8311C131.234 37.158 131.484 37.4293 131.797 37.6519C132.11 37.8675 132.458 38.0275 132.848 38.1318C133.237 38.2361 133.634 38.2848 134.037 38.2848C134.426 38.2848 134.816 38.2361 135.205 38.1318C135.595 38.0275 135.943 37.8675 136.256 37.6519C136.569 37.4362 136.819 37.158 137.014 36.8311C137.209 36.5042 137.306 36.1078 137.306 35.6418V30.8495C137.306 30.3835 137.209 29.987 137.014 29.6601C136.819 29.3332 136.569 29.062 136.256 28.8533C135.943 28.6447 135.595 28.4847 135.205 28.3873C134.816 28.283 134.426 28.2343 134.037 28.2343Z" fill="#212366"/>
<path d="M145.91 26.9684C146.049 26.9684 146.195 26.9754 146.341 26.9823C146.487 26.9893 146.64 27.0032 146.8 27.0171V28.3247C146.536 28.2621 146.285 28.2343 146.049 28.2343C146.014 28.2343 145.986 28.2343 145.958 28.2343C145.694 28.2482 145.416 28.2899 145.117 28.3525C144.512 28.4916 143.983 28.7699 143.538 29.1802C143.093 29.5906 142.87 30.1609 142.87 30.8773V39.3211H141.563V30.8704C141.563 30.154 141.709 29.5489 142.008 29.0481C142.307 28.5473 142.669 28.1508 143.107 27.8448C143.545 27.5388 144.018 27.3162 144.519 27.1771C145.026 27.038 145.492 26.9684 145.91 26.9684Z" fill="#212366"/>
<path d="M150.236 39.3142H148.928V22.7604H150.236V33.5621L156.621 27.198H158.256L152.83 32.6718L158.207 39.3142H156.593L151.919 33.6108L150.236 35.294V39.3142Z" fill="#212366"/>
<path d="M163.987 38.2848C164.314 38.2848 164.641 38.25 164.967 38.1805C165.294 38.1109 165.586 37.9927 165.844 37.8188C166.101 37.6449 166.303 37.4223 166.449 37.1372C166.595 36.8589 166.672 36.5042 166.672 36.0869C166.672 35.6835 166.588 35.3496 166.414 35.0784C166.24 34.8141 166.018 34.5985 165.746 34.4246C165.475 34.2507 165.176 34.1255 164.849 34.042C164.522 33.9586 164.202 33.8821 163.889 33.8195C163.389 33.729 162.895 33.6108 162.394 33.4786C161.893 33.3465 161.448 33.1517 161.052 32.9083C160.655 32.6649 160.328 32.338 160.071 31.9345C159.814 31.5381 159.688 31.0234 159.688 30.4044C159.688 29.7992 159.82 29.2776 160.085 28.8394C160.349 28.4012 160.69 28.0465 161.114 27.7613C161.532 27.4831 161.998 27.2814 162.505 27.1562C163.013 27.031 163.507 26.9684 163.994 26.9684C164.62 26.9684 165.232 27.0727 165.83 27.2744C166.428 27.4762 166.95 27.7822 167.388 28.1856L166.546 29.1663C166.206 28.8046 165.816 28.5612 165.378 28.429C164.94 28.2969 164.481 28.2273 164.001 28.2273C163.688 28.2273 163.361 28.2621 163.006 28.3317C162.658 28.4012 162.331 28.5195 162.025 28.6794C161.719 28.8464 161.469 29.0689 161.274 29.3471C161.079 29.6254 160.982 29.9801 160.982 30.3974C160.982 30.8008 161.093 31.1347 161.309 31.392C161.525 31.6494 161.796 31.858 162.116 32.0111C162.436 32.1641 162.777 32.2823 163.131 32.3588C163.493 32.4353 163.827 32.5049 164.14 32.5675C164.606 32.6579 165.072 32.7831 165.531 32.9431C165.99 33.0961 166.4 33.3117 166.769 33.576C167.138 33.8403 167.43 34.1742 167.659 34.5845C167.882 34.988 168 35.4887 168 36.0799C168 36.6851 167.889 37.2067 167.659 37.638C167.43 38.0692 167.131 38.4239 166.762 38.7021C166.386 38.9803 165.962 39.189 165.489 39.3211C165.016 39.4533 164.515 39.5298 164.008 39.5437C163.945 39.5437 163.882 39.5437 163.82 39.5437C162.93 39.5437 162.102 39.342 161.344 38.9386C160.53 38.5213 159.862 37.8883 159.334 37.0467L160.342 36.4138C160.794 37.0398 161.344 37.5058 161.991 37.8188C162.61 38.1318 163.284 38.2848 163.987 38.2848Z" fill="#212366"/>
<path d="M8.22125 44.4612C10.5722 45.8036 13.5282 46.666 16.2408 46.5686C17.8823 46.513 19.5237 46.1513 21.0887 45.6714C22.0555 45.3723 23.217 45.0872 24.0099 44.4334C24.8585 43.7309 24.6707 41.999 23.6413 41.5469C22.7788 41.1713 21.6103 41.2408 21.1235 42.2076C19.5376 45.3654 18.0979 48.85 17.7084 52.3833C17.604 53.3432 17.611 54.4004 17.9518 55.3185C18.4317 56.5983 19.3777 57.4747 20.6853 57.8989C23.1892 58.7058 25.6584 57.0643 27.3763 55.395C28.6353 54.1709 29.762 52.7381 30.6801 51.2357C29.6229 50.6167 28.5657 49.9976 27.5085 49.3786C27.2303 49.9003 26.9242 50.408 26.6182 50.9158C26.2983 51.4304 25.9714 51.9312 25.6236 52.4251C25.4219 52.7102 25.2202 52.9885 25.0115 53.2667C24.9698 53.3154 24.8029 53.5379 24.9628 53.3362C25.1437 53.0928 24.8863 53.4336 24.8654 53.4545C24.7403 53.6075 24.622 53.7605 24.4968 53.9135C23.996 54.5117 23.4744 55.089 22.904 55.6315C22.6467 55.8749 22.3824 56.1114 22.1111 56.334C22.0903 56.3479 21.7494 56.6122 21.9929 56.4314C22.2015 56.2714 21.972 56.4453 21.9233 56.48C21.7634 56.5913 21.6103 56.7026 21.4504 56.8C21.1582 56.9878 20.8452 57.1547 20.5323 57.3077C20.1497 57.5025 20.8522 57.2173 20.3653 57.3703C20.1984 57.426 20.0315 57.4816 19.8645 57.5234C19.7741 57.5442 19.6767 57.5581 19.5863 57.586C19.3081 57.6625 19.7463 57.5651 19.7393 57.572C19.6976 57.6277 19.3638 57.5999 19.2872 57.5999C19.1342 57.5999 18.9882 57.5929 18.8351 57.579C18.3135 57.5512 19.162 57.6625 18.6613 57.5581C18.3761 57.4955 18.0979 57.4399 17.8266 57.3495C17.6736 57.3008 17.5275 57.2382 17.3815 57.1895C17.1589 57.1199 17.7292 57.3634 17.5275 57.2521C17.451 57.2104 17.3676 57.1756 17.2911 57.1408C17.0128 57.0017 16.7416 56.8417 16.4842 56.6678C16.3799 56.5983 16.2269 56.5218 16.1434 56.4244C16.1573 56.4383 16.4912 56.7235 16.2686 56.5148C16.1921 56.4453 16.1086 56.3757 16.0252 56.3062C15.8165 56.1184 15.6079 55.9167 15.4201 55.715C15.3227 55.6106 15.2253 55.5063 15.1349 55.395C15.0375 55.2837 14.6271 54.8525 15.0097 55.2629C14.5785 54.8108 14.2516 54.1778 13.9525 53.6353C13.6464 53.0858 13.25 52.4598 13.0831 51.8547C13.1874 52.2303 13.1317 51.973 13.0483 51.7643C12.9926 51.6252 12.937 51.4791 12.8813 51.34C12.7631 51.0201 12.6518 50.7071 12.5405 50.3802C12.151 49.2047 11.838 48.0015 11.5876 46.7912C11.4694 46.2278 11.3651 45.6644 11.2747 45.1011C11.2329 44.8437 11.1981 44.5933 11.1564 44.336C11.1495 44.2873 11.1425 44.2386 11.1356 44.1969C11.0869 43.8908 11.1981 44.7185 11.1634 44.4125C11.1495 44.3151 11.1425 44.2247 11.1286 44.1343C11.0799 43.7169 11.0312 43.2927 10.9964 42.8684C10.9338 41.9086 10.1966 40.9835 9.16023 41.0322C8.22125 41.0739 7.25445 41.846 7.32401 42.8684C7.60222 47.0138 8.6038 51.3539 10.5304 55.0403C11.9006 57.6694 14.029 60.0412 16.9433 60.9245C18.696 61.4531 20.4488 61.3279 22.1181 60.6046C23.6483 59.9369 24.9837 58.8031 26.1244 57.6068C27.9049 55.7358 29.4838 53.531 30.6871 51.2357C31.1322 50.3871 30.9305 49.1978 30.0263 48.7179C29.1291 48.2449 28.051 48.5022 27.5085 49.3786C27.3207 49.6847 27.119 49.9768 26.9103 50.2689C26.813 50.408 26.7156 50.5471 26.6112 50.6862C26.5208 50.8114 26.1661 51.3748 26.4861 50.8601C26.2426 51.2566 25.874 51.6252 25.561 51.966C25.241 52.3207 24.9072 52.6685 24.5594 52.9954C24.3855 53.1623 24.2047 53.3223 24.0169 53.4753C23.9334 53.5449 23.5996 53.7814 24.0169 53.4823C23.8917 53.5727 23.7665 53.6701 23.6343 53.7535C23.4466 53.8787 23.2518 54.0039 23.0501 54.1083C22.9527 54.1639 22.8484 54.2056 22.751 54.2613C22.4172 54.4491 23.1544 54.15 22.7928 54.2404C22.598 54.2891 22.3824 54.3517 22.1876 54.4143C21.8399 54.5256 22.6328 54.4213 22.2711 54.4074C22.1459 54.4004 21.9929 54.4004 21.8677 54.4143C21.5199 54.4421 22.285 54.5465 21.9581 54.4282C21.8746 54.4004 21.7494 54.3656 21.659 54.3517C21.3182 54.2961 21.9998 54.5812 21.7077 54.3726C21.6242 54.3169 21.506 54.2474 21.4156 54.2056C21.047 54.0387 21.7494 54.4978 21.5199 54.2961C21.506 54.2822 21.3808 54.1361 21.3669 54.143C21.5616 54.1013 21.6242 54.5882 21.4851 54.2822C21.4712 54.2613 21.353 54.0179 21.346 54.0179C21.4851 54.0248 21.506 54.5186 21.4225 54.1639C21.4017 54.0805 21.3808 54.0039 21.3599 53.9274C21.346 53.8579 21.346 53.7327 21.3113 53.677C21.4782 53.9692 21.346 54.0874 21.3391 53.8092C21.3252 53.371 21.3321 52.9467 21.3669 52.5085C21.3808 52.3625 21.346 52.0286 21.353 52.5642C21.353 52.4598 21.3878 52.3346 21.4017 52.2303C21.4434 52.0008 21.4851 51.7782 21.5338 51.5487C21.6451 51.041 21.7773 50.5332 21.9233 50.0324C22.2085 49.0726 22.5424 48.1266 22.911 47.1946C23.0084 46.9512 23.0988 46.7147 23.2031 46.4782C23.2449 46.3809 23.2796 46.2835 23.3214 46.1861C23.064 46.7217 23.2796 46.2835 23.3353 46.1652C23.4952 45.7966 23.6552 45.4349 23.8221 45.0732C23.9752 44.7394 24.1282 44.4125 24.2951 44.0856C23.4535 44.3082 22.6189 44.5238 21.7773 44.7463L21.4086 41.8599C21.7634 41.5677 21.8816 41.5051 21.7147 41.6095C21.4573 41.7694 22.132 41.4495 21.9372 41.5121C21.7773 41.5677 21.6173 41.6373 21.4573 41.6999C20.9426 41.8946 20.414 42.0616 19.8854 42.2215C19.2386 42.4163 18.5848 42.5763 17.924 42.7084C17.7501 42.7432 17.5762 42.778 17.4023 42.8058C17.3189 42.8197 16.8598 42.8823 17.1867 42.8406C16.8111 42.8823 16.4425 42.9171 16.0669 42.924C14.6063 42.9519 13.3126 42.6389 11.8172 42.0963C11.6711 42.0407 11.5251 41.9851 11.379 41.9294C11.3094 41.9016 10.8504 41.6999 11.2955 41.9016C11.0869 41.8042 10.8782 41.7138 10.6695 41.6164C10.4678 41.5191 10.2661 41.4217 10.0783 41.3104C9.24369 40.8305 8.03346 41.0878 7.56049 41.9711C7.09448 42.8197 7.32401 43.9534 8.22125 44.4612Z" fill="#4EEBDB"/>
<path d="M14.5437 29.5697C14.3489 29.4445 14.1542 29.3193 13.9594 29.2081C11.9215 28.3178 9.5219 28.1856 7.53962 28.8742C5.34868 29.6323 6.28766 33.3326 8.49251 32.5745C9.7097 32.1502 11.226 32.1919 12.4988 32.7414C12.7492 32.1919 13.2152 31.246 13.7925 30.5018C14.0846 30.1192 14.335 29.8132 14.5437 29.5697Z" fill="#4EEBDB"/>
<path d="M34.0257 46.6173C34.0257 47.6885 33.1562 48.5579 32.0851 48.5579C31.014 48.5579 30.1446 47.6885 30.1446 46.6173C30.1446 45.5462 31.014 44.6768 32.0851 44.6768C33.1562 44.6698 34.0257 45.5393 34.0257 46.6173Z" fill="#4EEBDB"/>
<path d="M23.5857 21.2929L23.5439 21.2442L9.13936 21.2581C4.09671 21.3068 0 25.4313 0 30.4948C0 35.5861 4.1454 39.7385 9.24369 39.7385C11.4694 39.7385 13.556 38.9386 15.1836 37.5684C15.9208 36.8312 16.4216 35.9409 16.9711 35.0854C17.2771 34.6124 17.6388 34.1533 18.0561 33.7638L18.0631 33.7708C19.4959 32.3102 21.2556 31.8442 23.1196 32.4493C25.4636 33.2074 26.4652 29.5211 24.1351 28.7699C21.7634 28.0048 19.5794 28.3873 17.2702 29.5976L17.2771 29.5906C17.2493 29.6115 16.2895 30.2444 15.9 30.5922C15.2601 31.1625 13.8203 33.4161 13.5421 33.7777C12.5336 35.0993 10.9617 35.8991 9.24369 35.8991C6.25983 35.8991 3.83936 33.4717 3.83936 30.4948C3.83936 27.6362 6.07204 25.2922 8.88896 25.1044H8.90287H9.63319L22.3267 25.1114H23.1753H23.1962C25.9713 25.3339 28.1623 27.664 28.1623 30.4948C28.1623 33.4717 25.7349 35.8991 22.758 35.8991C21.6034 35.8991 20.5114 35.5305 19.6141 34.8837C19.3638 35.1897 19.0716 35.5444 18.7517 35.9617C18.1466 36.7477 17.7849 37.5545 17.5832 38.1457C19.0786 39.1542 20.8661 39.7315 22.758 39.7315C27.8563 39.7315 32.0017 35.5861 32.0017 30.4879C32.0017 25.6817 28.2944 21.7102 23.5857 21.2929Z" fill="#4EEBDB"/>
<path d="M25.0324 9.03748C24.4551 4.73211 20.9426 1.52569 16.7763 1.17096C12.158 0.746684 7.88043 3.89747 6.9971 8.54365C6.94146 8.85665 6.89972 9.16268 6.8719 9.46872C6.84408 9.74693 6.83017 10.0251 6.83017 10.3034C6.83017 15.1234 10.593 19.081 15.3366 19.394C15.3922 19.401 15.4479 19.401 15.4966 19.4079C20.3792 19.6722 24.5803 16.0276 25.0532 11.2076C25.1367 10.4981 25.1297 9.77475 25.0324 9.03748ZM15.4479 15.4782C15.4131 15.4782 15.3783 15.4712 15.3435 15.4642C13.0344 15.1721 11.1147 13.3568 10.7878 10.9433C10.7391 10.6094 10.7321 10.2755 10.753 9.94168C10.9477 7.08998 13.4099 4.89904 16.2756 5.05206C19.0229 5.21899 21.2139 7.51426 21.2139 10.3034C21.2139 10.4842 21.2069 10.665 21.1861 10.8389C21.1861 10.825 21.1861 10.8041 21.1861 10.7902C21.1721 10.9363 21.1513 11.0754 21.1304 11.2215C20.6227 13.8854 18.1813 15.7007 15.5383 15.4851C15.5035 15.4851 15.4757 15.4782 15.4479 15.4782Z" fill="#4EEBDB"/>
<path d="M16.6859 4.48173C16.7416 4.46086 16.7972 4.44 16.8598 4.42608C16.6998 4.44695 16.5468 4.47477 16.3868 4.50955C14.2029 4.64866 12.1162 4.09223 10.3635 3.0211C11.6363 1.74827 13.2569 0.795381 15.1279 0.322416C17.924 -0.380077 20.7409 0.127666 23.0292 1.51874C21.4364 3.10456 19.3151 4.1896 16.9155 4.46782C16.8389 4.46782 16.7624 4.47477 16.6859 4.48173Z" fill="#4EEBDB"/>
</svg>
